<svg width="72" height="72" viewBox="0 0 72 72" fill="none" xmlns="http://www.w3.org/2000/svg">
<rect width="72" height="72" rx="36" fill="white"/>
<rect width="72" height="72" rx="36" fill="#ED2836"/>
<path d="M51.9825 33.6059C51.9528 32.2865 51.6223 30.6537 51.092 29.0633C50.4885 27.2561 49.64 25.587 48.194 24.2686C46.6782 22.8862 44.5738 22.5987 42.7712 23.5787C41.2327 24.4145 40.3074 25.7839 39.574 27.2975C38.5972 29.3119 38.1289 31.4628 37.9501 33.6784C37.8463 34.9571 38.0024 36.2031 38.5431 37.3886C39.1536 38.7295 40.1225 39.7519 41.3226 40.5998C42.2706 41.2698 42.7581 42.204 42.7694 43.3809C42.7781 44.2573 42.827 45.1337 42.8802 46.0092C42.9281 46.801 42.9473 47.6014 43.0869 48.3785C43.2482 49.2748 44.211 49.9457 45.0727 49.8749C46.0791 49.792 46.891 48.9778 46.939 48.0038C47.0096 46.5454 47.1003 45.0871 47.1448 43.627C47.1867 42.223 47.7876 41.1817 48.9414 40.3502C51.1104 38.7857 52.1499 36.646 51.9825 33.6059Z" fill="white"/>
<path d="M25.8936 28.2971C25.8936 29.5341 25.9034 30.7712 25.8892 32.0083C25.8811 32.6882 25.353 33.2368 24.7313 33.2618C24.0935 33.2869 23.5217 32.7902 23.5182 32.0947C23.5146 31.0883 23.5538 30.0784 23.6475 29.0763C23.7438 28.0439 23.9437 27.0202 24.0668 25.9896C24.1836 25.0108 23.4191 24.1124 22.4165 24.0052C21.5147 23.9085 20.6583 24.6341 20.5415 25.6043C20.3979 26.7939 20.1945 27.9817 20.1374 29.1756C20.0482 31.052 19.9242 32.9431 20.0607 34.8117C20.2462 37.3455 21.5432 39.3506 23.734 40.7864C24.7866 41.4757 25.3923 42.4373 25.4753 43.664C25.5734 45.1222 25.6171 46.5848 25.6831 48.0457C25.7161 48.7782 26.2799 49.5324 26.9703 49.7639C27.7588 50.0283 28.5108 49.8356 29.0772 49.2413C29.5036 48.7938 29.6267 48.2461 29.649 47.6664C29.6883 46.5952 29.7061 45.5231 29.7588 44.4519C29.7811 44.0026 29.8274 43.5456 29.9372 43.1094C30.1869 42.1064 30.8684 41.404 31.7399 40.8581C33.1252 39.9916 34.0699 38.7873 34.7193 37.3291C35.3152 35.9909 35.3696 34.575 35.3589 33.1703C35.3446 31.42 35.2144 29.6689 35.0806 27.9221C35.0137 27.0513 34.854 26.1848 34.6854 25.3261C34.5453 24.6091 33.8005 24.0225 33.0798 23.9828C32.3875 23.9448 31.7301 24.4182 31.4036 25.0903C31.0816 25.7538 31.3189 26.3939 31.3742 27.0479C31.5151 28.7134 31.6641 30.379 31.7462 32.0472C31.7613 32.3574 31.5437 32.7331 31.3216 32.9854C31.0254 33.3215 30.583 33.3361 30.1602 33.1582C29.6499 32.9439 29.4537 32.5258 29.4519 32.0248C29.4421 29.7778 29.4492 27.5308 29.4412 25.2847C29.4403 25.0108 29.4082 24.7326 29.3484 24.4648C29.1415 23.5344 28.3601 22.9297 27.493 23.0066C26.5742 23.0878 25.899 23.8523 25.8945 24.8294C25.89 25.9853 25.8936 27.1403 25.8936 28.2971Z" fill="white"/>
</svg>
