<svg width="72" height="72" viewBox="0 0 72 72" fill="none" xmlns="http://www.w3.org/2000/svg">
<rect width="72" height="72" rx="36" fill="white"/>
<rect width="72" height="72" rx="36" fill="#029835"/>
<path fill-rule="evenodd" clip-rule="evenodd" d="M20 29.0201H52V52.6304H20V29.0201ZM41.4785 48.8252C41.1461 49.0315 40.8367 48.894 40.5387 48.5845L35.553 43.6447L30.5215 48.6304C30.212 48.9513 29.8911 49.0888 29.5358 48.8481C29.49 48.8138 28.894 48.2063 28.8711 48.1719C28.6648 47.8395 28.8023 47.5301 29.1117 47.2321L34.0974 42.212L32.3553 40.4814C30.5788 41.639 28.7335 40.6074 27.5415 39.1404C27.0258 38.4986 26.361 37.1691 26.1318 35.9427C25.9943 35.2436 26.0057 34.5788 26.1662 34.0287C26.384 33.2722 26.6132 33.043 27.3811 32.8252C27.9312 32.6648 28.596 32.6648 29.2837 32.7908C30.51 33.0315 31.8395 33.6848 32.4814 34.2006C33.9599 35.3925 34.9914 37.2378 33.8224 39.0143L35.5415 40.745L37.1347 39.1404C37.0888 38.3725 37.1003 37.5129 37.192 37.1576C37.2607 36.8481 37.4441 36.6648 37.9026 36.2407L42.4413 32.2178C43.2436 31.3811 43.8166 31.9656 42.9685 32.7564L39.9542 35.5989C39.6218 35.9198 39.3926 36.2292 39.7822 36.6074C40.1834 36.9971 40.4126 36.7794 40.7221 36.4585L43.8395 33.3295C44.0917 33.0659 44.4011 33.0086 44.5501 33.192C44.7221 33.341 44.6762 33.6504 44.4126 33.9026L41.2837 37.0201C40.9742 37.3295 40.745 37.5702 41.1347 37.9599C41.5129 38.3496 41.8223 38.1318 42.1433 37.788L44.9857 34.7736C45.7765 33.9255 46.361 34.4986 45.5244 35.3009L41.5014 39.8395C41.0774 40.298 40.9054 40.4699 40.5845 40.5501C40.2178 40.6304 39.3582 40.6418 38.6017 40.6074L36.9857 42.212L41.914 47.1862C42.235 47.4957 42.3725 47.8166 42.1318 48.1719C42.0974 48.2178 41.49 48.8138 41.4556 48.8367L41.4785 48.8252ZM21.3868 28.1834C21.1576 28.1834 21.0888 27.8854 21.3868 27.6447L29.6046 20H36H42.3954L50.6017 27.6447C50.8997 27.8854 50.8309 28.1719 50.6017 28.1834H35.9885H21.3754H21.3868ZM21.2493 23.553L21.3181 26.9456L27.553 21.1117H23.851C22.2464 21.0774 21.1232 21.9713 21.2378 23.5415L21.2493 23.553ZM50.7393 23.553L50.6705 26.9456L44.4355 21.1117H48.1375C49.7421 21.0774 50.8653 21.9713 50.7507 23.5415L50.7393 23.553ZM32.7794 22.6819H35.0029H35.553H39.2092C39.553 22.6819 39.8281 22.957 39.8281 23.3009V24.2292C39.8281 24.2751 39.8281 24.3095 39.8166 24.3553H36.1605H34.3954H32.1719C32.1605 24.3095 32.1605 24.2751 32.1605 24.2292V23.3009C32.1605 22.957 32.4355 22.6819 32.7794 22.6819Z" fill="white"/>
</svg>
