<svg width="24" height="24" viewBox="0 0 24 24" fill="none" xmlns="http://www.w3.org/2000/svg">
<path d="M21.8999 5H17.9999V2C17.9999 1.45 17.5499 1 16.9999 1C16.4499 1 15.9999 1.45 15.9999 2V5H12.0999C11.5099 5 11.0499 5.51 11.0999 6.1L11.2199 7.31C14.8999 8.16 17.9999 10.77 17.9999 15L18.0199 23H19.7199C20.5599 23 21.2499 22.35 21.3499 21.53L22.8899 6.1C22.9499 5.51 22.4899 5 21.8999 5Z" fill="white"/>
<path d="M15 21H2C1.45 21 1 21.45 1 22C1 22.55 1.45 23 2 23H15C15.55 23 16 22.55 16 22C16 21.45 15.55 21 15 21Z" fill="white"/>
<path d="M2.1002 15H14.9002C15.5202 15 16.0102 14.44 15.8902 13.84C15.2402 10.61 11.8702 8.98999 8.5002 8.98999C5.1302 8.98999 1.7702 10.61 1.1102 13.84C0.990197 14.44 1.4902 15 2.1002 15Z" fill="white"/>
<path d="M15 17H2C1.45 17 1 17.45 1 18C1 18.55 1.45 19 2 19H15C15.55 19 16 18.55 16 18C16 17.45 15.55 17 15 17Z" fill="white"/>
</svg>
