<svg width="20" height="17" viewBox="0 0 20 17" fill="none" xmlns="http://www.w3.org/2000/svg">
<path fill-rule="evenodd" clip-rule="evenodd" d="M3.11 9.34997H4.36333C4.36333 9.34997 6.29667 2.20745 6.69583 0.626452C6.82583 0.112204 7.23417 -0.000845254 7.5 4.74262e-06C7.76583 0.000854739 8.18833 0.190404 8.28917 0.629002C8.77333 2.72509 10.8808 12.4508 10.8808 12.4508C10.8808 12.4508 12.2117 6.97593 12.5 5.74343C12.5842 5.38218 12.9467 5.09999 13.3333 5.09999C13.72 5.09999 14.0542 5.39153 14.1667 5.70093C14.4267 6.41578 15.5625 9.34487 15.5642 9.34997H16.89C17.1783 8.84167 17.7167 8.49997 18.3333 8.49997C19.2533 8.49997 20 9.26157 20 10.2C20 11.1384 19.2533 11.9 18.3333 11.9C17.7158 11.9 17.1767 11.5566 16.8883 11.0474C16.1058 11.0466 15.3417 11.0474 15 11.05C14.5808 11.0534 14.355 10.8043 14.2267 10.5153L13.5167 8.70652C13.5167 8.70652 11.9933 14.9684 11.6417 16.3556C11.5142 16.8614 11.1033 17.0033 10.8333 16.9999C10.5633 16.9965 10.1275 16.8316 10.02 16.3344C9.5625 14.2204 8.28583 8.37077 7.4175 4.38939C7.4175 4.38939 6.12167 9.28877 5.80417 10.4235C5.69583 10.8094 5.445 11.0449 5 11.05H3.11C2.82167 11.5583 2.28333 11.9 1.66667 11.9C0.746667 11.9 0 11.1384 0 10.2C0 9.26157 0.746667 8.49997 1.66667 8.49997C2.28333 8.49997 2.82167 8.84167 3.11 9.34997V9.34997Z" fill="#424242"/>
</svg>
