<svg width="20" height="17" viewBox="0 0 20 17" fill="none" xmlns="http://www.w3.org/2000/svg">
<path fill-rule="evenodd" clip-rule="evenodd" d="M3.11 9.16667H4.36333C4.36333 9.16667 6.29667 2.16417 6.69583 0.614171C6.82583 0.110005 7.23417 -0.000828684 7.5 4.64965e-06C7.76583 0.000837983 8.18833 0.186671 8.28917 0.616671C8.77333 2.67167 10.8808 12.2067 10.8808 12.2067C10.8808 12.2067 12.2117 6.83917 12.5 5.63084C12.5842 5.27667 12.9467 5.00001 13.3333 5.00001C13.72 5.00001 14.0542 5.28584 14.1667 5.58917C14.4267 6.29 15.5625 9.16167 15.5642 9.16667H16.89C17.1783 8.66834 17.7167 8.33334 18.3333 8.33334C19.2533 8.33334 20 9.08001 20 10C20 10.92 19.2533 11.6667 18.3333 11.6667C17.7158 11.6667 17.1767 11.33 16.8883 10.8308C16.1058 10.83 15.3417 10.8308 15 10.8333C14.5808 10.8367 14.355 10.5925 14.2267 10.3092L13.5167 8.53584C13.5167 8.53584 11.9933 14.675 11.6417 16.035C11.5142 16.5308 11.1033 16.67 10.8333 16.6667C10.5633 16.6633 10.1275 16.5017 10.02 16.0142C9.5625 13.9417 8.28583 8.20667 7.4175 4.30334C7.4175 4.30334 6.12167 9.10667 5.80417 10.2192C5.69583 10.5975 5.445 10.8283 5 10.8333H3.11C2.82167 11.3317 2.28333 11.6667 1.66667 11.6667C0.746667 11.6667 0 10.92 0 10C0 9.08001 0.746667 8.33334 1.66667 8.33334C2.28333 8.33334 2.82167 8.66834 3.11 9.16667V9.16667Z" fill="white"/>
</svg>
