<svg width="352" height="74" viewBox="0 0 352 74" fill="none" xmlns="http://www.w3.org/2000/svg">
<path d="M13.5766 29.011C15.2506 26.531 17.5446 24.516 20.4586 22.966C23.4346 21.416 26.8136 20.641 30.5956 20.641C34.9976 20.641 38.9656 21.726 42.4996 23.896C46.0956 26.066 48.9166 29.166 50.9626 33.196C53.0706 37.164 54.1246 41.783 54.1246 47.053C54.1246 52.323 53.0706 57.004 50.9626 61.096C48.9166 65.126 46.0956 68.257 42.4996 70.489C38.9656 72.721 34.9976 73.837 30.5956 73.837C26.7516 73.837 23.3726 73.093 20.4586 71.605C17.6066 70.055 15.3126 68.071 13.5766 65.653V73H0.556588V4.18H13.5766V29.011ZM40.8256 47.053C40.8256 43.953 40.1746 41.287 38.8726 39.055C37.6326 36.761 35.9586 35.025 33.8506 33.847C31.8046 32.669 29.5726 32.08 27.1546 32.08C24.7986 32.08 22.5666 32.7 20.4586 33.94C18.4126 35.118 16.7386 36.854 15.4366 39.148C14.1966 41.442 13.5766 44.139 13.5766 47.239C13.5766 50.339 14.1966 53.036 15.4366 55.33C16.7386 57.624 18.4126 59.391 20.4586 60.631C22.5666 61.809 24.7986 62.398 27.1546 62.398C29.5726 62.398 31.8046 61.778 33.8506 60.538C35.9586 59.298 37.6326 57.531 38.8726 55.237C40.1746 52.943 40.8256 50.215 40.8256 47.053ZM85.0689 73.837C80.1089 73.837 75.6449 72.752 71.6769 70.582C67.7089 68.35 64.5779 65.219 62.2839 61.189C60.0519 57.159 58.9359 52.509 58.9359 47.239C58.9359 41.969 60.0829 37.319 62.3769 33.289C64.7329 29.259 67.9259 26.159 71.9559 23.989C75.9859 21.757 80.4809 20.641 85.4409 20.641C90.4009 20.641 94.8959 21.757 98.9259 23.989C102.956 26.159 106.118 29.259 108.412 33.289C110.768 37.319 111.946 41.969 111.946 47.239C111.946 52.509 110.737 57.159 108.319 61.189C105.963 65.219 102.739 68.35 98.6469 70.582C94.6169 72.752 90.0909 73.837 85.0689 73.837ZM85.0689 62.491C87.4249 62.491 89.6259 61.933 91.6719 60.817C93.7799 59.639 95.4539 57.903 96.6939 55.609C97.9339 53.315 98.5539 50.525 98.5539 47.239C98.5539 42.341 97.2519 38.59 94.6479 35.986C92.1059 33.32 88.9749 31.987 85.2549 31.987C81.5349 31.987 78.4039 33.32 75.8619 35.986C73.3819 38.59 72.1419 42.341 72.1419 47.239C72.1419 52.137 73.3509 55.919 75.7689 58.585C78.2489 61.189 81.3489 62.491 85.0689 62.491ZM135.261 32.173V57.097C135.261 58.833 135.664 60.104 136.47 60.91C137.338 61.654 138.764 62.026 140.748 62.026H146.793V73H138.609C127.635 73 122.148 67.668 122.148 57.004V32.173H116.01V21.478H122.148V8.737H135.261V21.478H146.793V32.173H135.261Z" fill="#212121"/>
<path d="M178.384 32.173H169.363V73H156.157V32.173H150.298V21.478H156.157V18.874C156.157 12.55 157.955 7.9 161.551 4.924C165.147 1.948 170.572 0.552998 177.826 0.738999V11.713C174.664 11.651 172.463 12.178 171.223 13.294C169.983 14.41 169.363 16.425 169.363 19.339V21.478H178.384V32.173ZM208.305 73.837C203.345 73.837 198.881 72.752 194.913 70.582C190.945 68.35 187.814 65.219 185.52 61.189C183.288 57.159 182.172 52.509 182.172 47.239C182.172 41.969 183.319 37.319 185.613 33.289C187.969 29.259 191.162 26.159 195.192 23.989C199.222 21.757 203.717 20.641 208.677 20.641C213.637 20.641 218.132 21.757 222.162 23.989C226.192 26.159 229.354 29.259 231.648 33.289C234.004 37.319 235.182 41.969 235.182 47.239C235.182 52.509 233.973 57.159 231.555 61.189C229.199 65.219 225.975 68.35 221.883 70.582C217.853 72.752 213.327 73.837 208.305 73.837ZM208.305 62.491C210.661 62.491 212.862 61.933 214.908 60.817C217.016 59.639 218.69 57.903 219.93 55.609C221.17 53.315 221.79 50.525 221.79 47.239C221.79 42.341 220.488 38.59 217.884 35.986C215.342 33.32 212.211 31.987 208.491 31.987C204.771 31.987 201.64 33.32 199.098 35.986C196.618 38.59 195.378 42.341 195.378 47.239C195.378 52.137 196.587 55.919 199.005 58.585C201.485 61.189 204.585 62.491 208.305 62.491ZM266.215 73.837C261.255 73.837 256.791 72.752 252.823 70.582C248.855 68.35 245.724 65.219 243.43 61.189C241.198 57.159 240.082 52.509 240.082 47.239C240.082 41.969 241.229 37.319 243.523 33.289C245.879 29.259 249.072 26.159 253.102 23.989C257.132 21.757 261.627 20.641 266.587 20.641C271.547 20.641 276.042 21.757 280.072 23.989C284.102 26.159 287.264 29.259 289.558 33.289C291.914 37.319 293.092 41.969 293.092 47.239C293.092 52.509 291.883 57.159 289.465 61.189C287.109 65.219 283.885 68.35 279.793 70.582C275.763 72.752 271.237 73.837 266.215 73.837ZM266.215 62.491C268.571 62.491 270.772 61.933 272.818 60.817C274.926 59.639 276.6 57.903 277.84 55.609C279.08 53.315 279.7 50.525 279.7 47.239C279.7 42.341 278.398 38.59 275.794 35.986C273.252 33.32 270.121 31.987 266.401 31.987C262.681 31.987 259.55 33.32 257.008 35.986C254.528 38.59 253.288 42.341 253.288 47.239C253.288 52.137 254.497 55.919 256.915 58.585C259.395 61.189 262.495 62.491 266.215 62.491ZM297.9 47.053C297.9 41.845 298.923 37.226 300.969 33.196C303.077 29.166 305.929 26.066 309.525 23.896C313.121 21.726 317.12 20.641 321.522 20.641C324.87 20.641 328.063 21.385 331.101 22.873C334.139 24.299 336.557 26.221 338.355 28.639V4.18H351.561V73H338.355V65.374C336.743 67.916 334.48 69.962 331.566 71.512C328.652 73.062 325.273 73.837 321.429 73.837C317.089 73.837 313.121 72.721 309.525 70.489C305.929 68.257 303.077 65.126 300.969 61.096C298.923 57.004 297.9 52.323 297.9 47.053ZM338.448 47.239C338.448 44.077 337.828 41.38 336.588 39.148C335.348 36.854 333.674 35.118 331.566 33.94C329.458 32.7 327.195 32.08 324.777 32.08C322.359 32.08 320.127 32.669 318.081 33.847C316.035 35.025 314.361 36.761 313.059 39.055C311.819 41.287 311.199 43.953 311.199 47.053C311.199 50.153 311.819 52.881 313.059 55.237C314.361 57.531 316.035 59.298 318.081 60.538C320.189 61.778 322.421 62.398 324.777 62.398C327.195 62.398 329.458 61.809 331.566 60.631C333.674 59.391 335.348 57.655 336.588 55.423C337.828 53.129 338.448 50.401 338.448 47.239Z" fill="#029835"/>
</svg>
