<svg width="24" height="24" viewBox="0 0 24 24" fill="none" xmlns="http://www.w3.org/2000/svg">
<path fill="#ffffff" d="M18.3333 14.6667V20H7C5.89533 20 5 19.1047 5 18V6C5 4.89533 5.89533 4 7 4H18.3333V5.33333H7.33C6.41333 5.33333 6.41333 6.66667 7.33 6.66667H18.3333V12H13.6667C12.9307 12 12.3333 12.5973 12.3333 13.3333C12.3333 14.0693 12.9307 14.6667 13.6667 14.6667H18.3333ZM13 13.3333C13 13.7013 13.2987 14 13.6667 14C14.0347 14 14.3333 13.7013 14.3333 13.3333C14.3333 12.9653 14.0347 12.6667 13.6667 12.6667C13.2987 12.6667 13 12.9653 13 13.3333Z"/>
</svg>
