<svg width="24" height="24" viewBox="0 0 24 24" fill="none" xmlns="http://www.w3.org/2000/svg">
<path fill="#ffffff" d="M17.7317 12.7833C17.765 12.5333 17.7817 12.275 17.7817 12C17.7817 11.7333 17.765 11.4667 17.7233 11.2167L19.415 9.9C19.565 9.78333 19.6067 9.55833 19.515 9.39166L17.915 6.625C17.815 6.44167 17.6067 6.38333 17.4233 6.44167L15.4317 7.24166C15.015 6.925 14.5733 6.65833 14.0817 6.45833L13.7817 4.34167C13.7483 4.14167 13.5817 4 13.3817 4H10.1817C9.98166 4 9.82333 4.14167 9.79 4.34167L9.49 6.45833C8.99833 6.65833 8.54833 6.93333 8.14 7.24166L6.14833 6.44167C5.965 6.375 5.75667 6.44167 5.65667 6.625L4.065 9.39166C3.965 9.56666 3.99833 9.78333 4.165 9.9L5.85667 11.2167C5.815 11.4667 5.78167 11.7417 5.78167 12C5.78167 12.2583 5.79833 12.5333 5.84 12.7833L4.14833 14.1C3.99833 14.2167 3.95667 14.4417 4.04833 14.6083L5.64833 17.375C5.74833 17.5583 5.95667 17.6167 6.14 17.5583L8.13166 16.7583C8.54833 17.075 8.99 17.3417 9.48166 17.5417L9.78166 19.6583C9.82333 19.8583 9.98166 20 10.1817 20H13.3817C13.5817 20 13.7483 19.8583 13.7733 19.6583L14.0733 17.5417C14.565 17.3417 15.015 17.075 15.4233 16.7583L17.415 17.5583C17.5983 17.625 17.8067 17.5583 17.9067 17.375L19.5067 14.6083C19.6067 14.425 19.565 14.2167 19.4067 14.1L17.7317 12.7833ZM11.7817 15C10.1317 15 8.78166 13.65 8.78166 12C8.78166 10.35 10.1317 9 11.7817 9C13.4317 9 14.7817 10.35 14.7817 12C14.7817 13.65 13.4317 15 11.7817 15Z"/>
</svg>
