<svg width="72" height="72" viewBox="0 0 72 72" fill="none" xmlns="http://www.w3.org/2000/svg">
<rect width="72" height="72" rx="36" fill="white"/>
<rect width="72" height="72" rx="36" fill="#EF3A27"/>
<path d="M42.8689 26.6845H29.1311V23.6151C29.1311 23.0726 29.5758 22.6327 30.124 22.6327H36H41.8756C42.4242 22.6327 42.8689 23.0726 42.8689 23.6151V26.6845ZM47.6965 20H24.3035L20 26.2205C20 26.2205 20.9075 44.2293 20.9075 50.2894C20.9075 51.2672 22.138 53 23.111 53H36H48.8887C49.8619 53 51.0921 51.2672 51.0921 50.2894C51.0921 44.2293 52 26.2205 52 26.2205L47.6965 20Z" fill="white"/>
<path fill-rule="evenodd" clip-rule="evenodd" d="M32 41.487C32.0048 41.8852 30.256 44.1562 30.256 44.1562L29.9872 53H28.0153L27.7437 44.1562C27.7437 44.1562 25.9952 41.8852 26 41.487C26.0049 41.2019 26 40.8121 26 40.8121L26.1778 31.2208C26.1778 31.0988 26.2594 31 26.3602 31C26.3602 31 26.7276 31 26.9488 31H27.052C27.0759 31 27.0975 31.0088 27.1144 31.0235C27.2225 31.0466 27.3281 31.0988 27.3523 31.227C27.3523 31.227 27.3569 31.227 27.3569 31.2296L27.3596 31.2733V31.4713C27.3596 31.4713 27.393 33.411 27.4242 35.3826C27.4603 37.3542 27.4964 39.3549 27.501 39.4742C27.5371 39.5267 27.7868 39.8203 28.0223 39.8115C28.2577 39.803 28.5293 39.4654 28.5293 39.4654V37.6044C28.5293 37.6044 28.5293 31.6487 28.5293 31.3372C28.5293 31.029 28.8991 31 28.8991 31H29.1055C29.1055 31 29.4707 31.029 29.4707 31.3372C29.4707 31.6487 29.4707 37.6044 29.4707 37.6044V39.4654C29.4707 39.4654 29.742 39.803 29.9775 39.8115C30.2129 39.8203 30.4626 39.5267 30.5011 39.4742C30.5154 39.2358 30.6404 31.4713 30.6404 31.4713L30.6453 31.2733V31.2296C30.6453 31.227 30.6477 31.227 30.6477 31.227C30.6717 31.0988 30.7773 31.0466 30.8853 31.0235C30.9047 31.0088 30.9238 31 30.9478 31H31.0561C31.2721 31 31.6396 31 31.6396 31C31.7406 31 31.8246 31.0988 31.8246 31.2208L32 40.8121C32 40.8121 31.9976 41.2019 32 41.487Z" fill="#EF3A27"/>
<path fill-rule="evenodd" clip-rule="evenodd" d="M46 37.518C46 41.0698 43.9893 43.5734 43.1298 44.4844C42.894 44.7319 42.7349 45.1077 42.7196 45.5155C42.6529 47.3087 42.4682 52.2167 42.4375 53H40.5625C40.5318 52.2167 40.3474 47.3087 40.2807 45.5155C40.2651 45.1077 40.106 44.7319 39.8702 44.4844C39.011 43.5734 37 41.0698 37 37.518C37 32.9998 39.7367 31 41.4988 31C43.2633 31 46 32.9998 46 37.518Z" fill="#EF3A27"/>
</svg>
