<svg width="72" height="72" viewBox="0 0 72 72" fill="none" xmlns="http://www.w3.org/2000/svg">
<rect width="72" height="72" rx="36" fill="white"/>
<rect width="72" height="72" rx="36" fill="#E25823"/>
<path d="M35.0561 25.9846C34.9558 29.6209 33.5514 32.555 30.517 34.6113C29.8399 35.0627 29.6644 35.5392 29.7146 36.3166C30.166 41.6582 30.5672 46.9997 30.9935 52.3664C31.1691 54.4729 29.6393 56.2785 27.608 56.3537C25.5015 56.4039 23.8714 54.6234 24.0219 52.4416C24.4482 46.9747 24.8495 41.4826 25.3259 36.0157C25.3761 35.4138 25.2256 35.138 24.7742 34.7869C19.0314 30.624 18.3543 21.8468 23.3699 16.7811C25.8275 14.2984 29.6895 14.4238 31.9715 17.1071C34.1533 19.665 34.8555 22.7496 35.0561 25.9846Z" fill="#FEFEFD"/>
<path d="M42.5544 23.0254C42.5544 21.0944 42.5544 19.1885 42.5544 17.2576C42.5544 15.803 43.3067 14.9755 44.4854 15.0006C45.6139 15.0256 46.291 15.8783 46.316 17.2325C46.316 21.1446 46.316 25.0818 46.3411 28.9939C46.3411 29.2949 46.1405 29.7463 46.4916 29.8967C46.9179 30.0723 47.2941 29.7463 47.595 29.4704C48.1216 28.9939 48.2219 28.3419 48.2219 27.6397C48.1969 24.7056 48.2219 21.7966 48.2219 18.8625C48.2219 17.9346 48.6232 17.2575 49.526 16.9315C50.3285 16.6306 50.9805 16.9315 51.5573 17.5334C51.9335 17.9347 51.9585 18.4362 51.9836 18.9378C51.9836 22.0725 52.0338 25.2072 51.9585 28.3419C51.9084 31.0252 50.0025 33.1819 47.3442 33.6082C46.5417 33.7336 46.5417 34.1349 46.5668 34.7117C46.8678 38.8244 47.1938 42.9372 47.4947 47.0248C47.6452 48.8806 47.8207 50.7614 47.8709 52.6172C47.9461 54.6986 46.4414 56.2785 44.4603 56.2785C42.4541 56.2785 40.8742 54.6485 41.0246 52.5169C41.4008 46.9496 41.8522 41.4074 42.2534 35.8402C42.2785 35.4138 42.2534 34.9875 42.3287 34.5863C42.4541 33.9593 42.1782 33.7336 41.5763 33.5832C38.5169 32.8559 36.9871 30.9249 36.937 27.8153C36.9119 24.8812 36.9119 21.9722 36.937 19.0381C36.937 17.6588 37.6391 16.8312 38.7426 16.7811C39.8961 16.7309 40.6485 17.6086 40.6485 19.0381C40.6736 21.922 40.6736 24.806 40.6485 27.6899C40.6485 28.5425 40.8992 29.2447 41.6767 29.6961C42.2534 30.0472 42.5795 30.0221 42.5544 29.1946C42.5293 27.1883 42.5544 25.1069 42.5544 23.0254Z" fill="#FEFDFD"/>
</svg>
